<mxfile host="app.diagrams.net" modified="2022-07-04T01:32:40.308Z" agent="5.0 (Macintosh; Intel Mac OS X 10_15_7) AppleWebKit/537.36 (KHTML, like Gecko) Chrome/103.0.0.0 Safari/537.36" etag="caa9Y8lXm_yFa0pcItC1" version="20.0.4" type="github">
  <diagram id="A4ItZbjAcyblu4EFFsMP" name="Page-1">
    <mxGraphModel dx="1136" dy="771" grid="1" gridSize="10" guides="1" tooltips="1" connect="1" arrows="1" fold="1" page="1" pageScale="1" pageWidth="827" pageHeight="1169" math="0" shadow="0">
      <root>
        <mxCell id="0" />
        <mxCell id="1" parent="0" />
        <mxCell id="881hocruBQjze4s_mBJX-1" value="" style="rounded=0;whiteSpace=wrap;html=1;" vertex="1" parent="1">
          <mxGeometry x="15" y="20" width="795" height="440" as="geometry" />
        </mxCell>
        <mxCell id="ne6_LfQAyheU7745YuGY-20" value="" style="rounded=1;whiteSpace=wrap;html=1;fillColor=#dae8fc;strokeColor=#6c8ebf;fontSize=14;" parent="1" vertex="1">
          <mxGeometry x="675" y="40" width="120" height="402" as="geometry" />
        </mxCell>
        <mxCell id="ne6_LfQAyheU7745YuGY-1" value="技术组件" style="rounded=1;whiteSpace=wrap;html=1;fillColor=#f8cecc;strokeColor=#b85450;fontSize=14;" parent="1" vertex="1">
          <mxGeometry x="29" y="288" width="120" height="60" as="geometry" />
        </mxCell>
        <mxCell id="ne6_LfQAyheU7745YuGY-2" value="技术中台&lt;br style=&quot;font-size: 14px;&quot;&gt;（开发框架、公共组件、中间件等）" style="rounded=1;whiteSpace=wrap;html=1;fillColor=#f8cecc;strokeColor=#b85450;fontSize=14;" parent="1" vertex="1">
          <mxGeometry x="169" y="288" width="480" height="60" as="geometry" />
        </mxCell>
        <mxCell id="ne6_LfQAyheU7745YuGY-3" value="基础设施" style="rounded=1;whiteSpace=wrap;html=1;fillColor=#d5e8d4;strokeColor=#82b366;fontSize=14;" parent="1" vertex="1">
          <mxGeometry x="29" y="378" width="120" height="60" as="geometry" />
        </mxCell>
        <mxCell id="ne6_LfQAyheU7745YuGY-4" value="凯亚云平台&lt;br style=&quot;font-size: 14px;&quot;&gt;（容器、资源、网络）" style="rounded=1;whiteSpace=wrap;html=1;fillColor=#d5e8d4;strokeColor=#82b366;fontSize=14;" parent="1" vertex="1">
          <mxGeometry x="169" y="378" width="480" height="60" as="geometry" />
        </mxCell>
        <mxCell id="ne6_LfQAyheU7745YuGY-5" value="业务和数据中台" style="rounded=1;whiteSpace=wrap;html=1;fillColor=#f8cecc;strokeColor=#b85450;fontSize=14;" parent="1" vertex="1">
          <mxGeometry x="29" y="203" width="120" height="60" as="geometry" />
        </mxCell>
        <mxCell id="ne6_LfQAyheU7745YuGY-6" value="业务中台&lt;br style=&quot;font-size: 14px;&quot;&gt;（共享服务，用户中心）" style="rounded=1;whiteSpace=wrap;html=1;fillColor=#f8cecc;strokeColor=#b85450;fontSize=14;" parent="1" vertex="1">
          <mxGeometry x="175" y="203" width="220" height="57" as="geometry" />
        </mxCell>
        <mxCell id="ne6_LfQAyheU7745YuGY-7" value="应用系统" style="rounded=1;whiteSpace=wrap;html=1;fillColor=#e1d5e7;strokeColor=#9673a6;fontSize=14;" parent="1" vertex="1">
          <mxGeometry x="169" y="40" width="480" height="60" as="geometry" />
        </mxCell>
        <mxCell id="ne6_LfQAyheU7745YuGY-8" value="数据中台" style="rounded=1;whiteSpace=wrap;html=1;fillColor=#f8cecc;strokeColor=#b85450;fontSize=14;" parent="1" vertex="1">
          <mxGeometry x="419" y="203" width="230" height="57" as="geometry" />
        </mxCell>
        <mxCell id="ne6_LfQAyheU7745YuGY-9" value="前台应用" style="rounded=1;whiteSpace=wrap;html=1;fillColor=#e1d5e7;strokeColor=#9673a6;fontSize=14;" parent="1" vertex="1">
          <mxGeometry x="29" y="40" width="120" height="60" as="geometry" />
        </mxCell>
        <mxCell id="ne6_LfQAyheU7745YuGY-11" value="&lt;pre style=&quot;font-size: 14px;&quot;&gt;&lt;span style=&quot;color: rgb(33, 33, 33); background-color: rgba(255, 255, 255, 0.01); font-size: 14px;&quot;&gt;&lt;font style=&quot;font-size: 14px;&quot; face=&quot;Helvetica&quot;&gt;网关、服务组合、服务注册、服务编排、功能聚合&lt;/font&gt;&lt;/span&gt;&lt;/pre&gt;" style="rounded=1;whiteSpace=wrap;html=1;fillColor=#ffe6cc;strokeColor=#d79b00;fontSize=14;" parent="1" vertex="1">
          <mxGeometry x="169" y="120" width="480" height="60" as="geometry" />
        </mxCell>
        <mxCell id="ne6_LfQAyheU7745YuGY-12" value="能力聚合" style="rounded=1;whiteSpace=wrap;html=1;fillColor=#ffe6cc;strokeColor=#d79b00;fontSize=14;" parent="1" vertex="1">
          <mxGeometry x="29" y="120" width="120" height="60" as="geometry" />
        </mxCell>
        <mxCell id="ne6_LfQAyheU7745YuGY-15" value="业务能力" style="rounded=1;whiteSpace=wrap;html=1;fontFamily=Helvetica;fontSize=14;fillColor=#f5f5f5;fontColor=#333333;strokeColor=#666666;" parent="1" vertex="1">
          <mxGeometry x="685" y="110" width="100" height="40" as="geometry" />
        </mxCell>
        <mxCell id="ne6_LfQAyheU7745YuGY-16" value="产品管理" style="rounded=1;whiteSpace=wrap;html=1;fontFamily=Helvetica;fontSize=14;fillColor=#f5f5f5;fontColor=#333333;strokeColor=#666666;" parent="1" vertex="1">
          <mxGeometry x="685" y="163" width="100" height="40" as="geometry" />
        </mxCell>
        <mxCell id="ne6_LfQAyheU7745YuGY-17" value="项目管理" style="rounded=1;whiteSpace=wrap;html=1;fontFamily=Helvetica;fontSize=14;fillColor=#f5f5f5;fontColor=#333333;strokeColor=#666666;" parent="1" vertex="1">
          <mxGeometry x="685" y="223" width="100" height="40" as="geometry" />
        </mxCell>
        <mxCell id="ne6_LfQAyheU7745YuGY-18" value="研发管理" style="rounded=1;whiteSpace=wrap;html=1;fontFamily=Helvetica;fontSize=14;fillColor=#f5f5f5;fontColor=#333333;strokeColor=#666666;" parent="1" vertex="1">
          <mxGeometry x="685" y="280" width="100" height="40" as="geometry" />
        </mxCell>
        <mxCell id="ne6_LfQAyheU7745YuGY-21" value="DevOps" style="rounded=1;whiteSpace=wrap;html=1;fontFamily=Helvetica;fontSize=14;fillColor=#f5f5f5;fontColor=#333333;strokeColor=#666666;" parent="1" vertex="1">
          <mxGeometry x="685" y="50" width="100" height="40" as="geometry" />
        </mxCell>
        <mxCell id="ne6_LfQAyheU7745YuGY-22" value="监控" style="rounded=1;whiteSpace=wrap;html=1;fontFamily=Helvetica;fontSize=14;fillColor=#f5f5f5;fontColor=#333333;strokeColor=#666666;" parent="1" vertex="1">
          <mxGeometry x="685" y="388" width="100" height="40" as="geometry" />
        </mxCell>
        <mxCell id="ne6_LfQAyheU7745YuGY-23" value="安全" style="rounded=1;whiteSpace=wrap;html=1;fontFamily=Helvetica;fontSize=14;fillColor=#f5f5f5;fontColor=#333333;strokeColor=#666666;" parent="1" vertex="1">
          <mxGeometry x="685" y="338" width="100" height="40" as="geometry" />
        </mxCell>
      </root>
    </mxGraphModel>
  </diagram>
</mxfile>
